<?xml version="1.0" encoding="UTF-8"?>
<svg version="1.1" xmlns="http://www.w3.org/2000/svg" width="1920" height="1920">
<path d="M0 0 C2.92168431 0.00543587 5.84336052 0.00780605 8.76504898 0.00987244 C35.70161924 0.03956911 62.49874402 0.32621152 89.31781387 3.0900116 C91.62762307 3.3240838 93.93847128 3.54212432 96.25024796 3.75584412 C177.32432227 11.28063162 257.99553917 29.36430594 481.56616592 126.31785583 C483.76909638 127.60334553 485.97223234 128.88848309 488.17554092 130.17332458 C509.16048444 142.44756485 529.62566249 155.40981005 549.56616592 169.31785583 C550.2967421 169.82558533 551.02731827 170.33331482 551.78003311 170.85643005 C562.21588258 178.11767265 572.44756881 185.6216058 582.56616592 193.31785583 C583.12755264 193.74276306 583.68893936 194.16767029 584.2673378 194.60545349 C592.9183246 201.15600562 601.350713 207.9562624 609.74585342 214.82957458 C611.33878457 216.13194962 612.93646112 217.42851616 614.53491592 218.72410583 C624.98810951 227.20963945 635.18664852 235.97151728 645.10522842 245.07566833 C647.31403539 247.08813691 649.55309891 249.05443599 651.81616592 251.00535583 C654.92006119 253.69918363 657.81421743 256.54090154 660.69032669 259.47445679 C662.50612311 261.25885138 664.37986623 262.91938142 666.31396866 264.57395935 C670.40754314 268.13480235 674.27207147 271.87877493 678.10132217 275.72019958 C678.78367432 276.401595 679.46602646 277.08299042 680.16905594 277.78503418 C681.59961029 279.21491324 683.0289236 280.64603495 684.45703506 282.07835388 C686.62315666 284.24983295 688.79456766 286.41591909 690.96655655 288.58152771 C692.3659658 289.98159785 693.76506476 291.38197822 695.16382217 292.78269958 C696.12192543 293.73776649 696.12192543 293.73776649 697.09938431 294.71212769 C700.87974206 298.51188317 704.47856812 302.42176086 707.97472 306.48486328 C710.59386432 309.50153634 713.33395796 312.40391277 716.06616592 315.31785583 C720.65767288 320.24290047 725.19849469 325.19184169 729.56616592 330.31785583 C730.73985733 331.6907074 730.73985733 331.6907074 731.93725967 333.09129333 C734.83018607 336.48624018 737.70190478 339.89870522 740.56616592 343.31785583 C741.11224503 343.96963806 741.65832413 344.62142029 742.22095108 345.29295349 C750.44353116 355.13231982 758.36834886 365.15748163 766.09936905 375.38670349 C767.43669124 377.14739233 768.78597383 378.89755891 770.14429092 380.64207458 C783.11169173 397.31145917 794.97556564 414.669872 806.56616592 432.31785583 C807.08453018 433.10579529 807.60289444 433.89373474 808.13696671 434.70555115 C811.31899226 439.55177065 814.4598899 444.4227516 817.56616592 449.31785583 C818.06680557 450.10660095 818.56744522 450.89534607 819.08325577 451.70799255 C827.69679713 465.33131573 835.76252742 479.21696231 843.56616592 493.31785583 C844.32268448 494.67427185 844.32268448 494.67427185 845.09448624 496.05809021 C887.01928228 571.34385841 917.70253765 651.84398439 960.3532753 870.02708435 C960.56238684 872.27719173 960.78820048 874.52498685 961.01929092 876.77293396 C966.63144882 932.06618758 966.63554473 990.58717472 960.82263565 1045.86265564 C960.54909353 1048.48129088 960.28878191 1051.10103959 960.03003311 1053.72117615 C951.00889716 1144.2283429 930.28105247 1233.95611901 864.56616592 1387.31785583 C864.07213272 1388.33460388 863.57809952 1389.35135193 863.06909561 1390.39891052 C856.2001587 1404.49496653 848.8314574 1418.21757234 841.00464249 1431.80369568 C839.75247669 1433.99222307 838.5222257 1436.1899744 837.30835342 1438.39988708 C821.6940879 1466.81593357 803.5900804 1494.07732856 784.56616592 1520.31785583 C784.02572647 1521.06406189 783.48528702 1521.81026794 782.92847061 1522.5790863 C769.49334553 1541.07822007 755.4660763 1559.06995978 740.64917374 1576.48313904 C737.7566443 1579.8878662 734.92776688 1583.33543006 732.12866592 1586.81785583 C728.26226425 1591.57276633 724.18087725 1596.08447228 719.99023819 1600.55223083 C717.31231953 1603.4086774 714.69113584 1606.30131598 712.12085342 1609.25535583 C701.46958564 1621.48238385 690.01564827 1632.96995743 678.56616592 1644.44285583 C677.98226089 1645.02934906 677.39835587 1645.61584229 676.79675674 1646.22010803 C665.3132319 1657.74377237 665.3132319 1657.74377237 659.20093155 1662.89744568 C657.40203115 1664.46046876 655.73435749 1666.11674106 654.06616592 1667.81785583 C651.07744256 1670.85380508 647.94910113 1673.66294242 644.72241592 1676.44285583 C642.36653635 1678.49144677 640.06109132 1680.58988585 637.75366592 1682.69285583 C633.43355802 1686.5914898 628.98545211 1690.29289441 624.46069717 1693.95066833 C621.95283958 1696.0016288 619.48555156 1698.09182386 617.02954483 1700.20433044 C610.2235741 1706.04683683 603.17454814 1711.5155483 596.02319717 1716.92723083 C592.25795392 1719.77911071 588.53805356 1722.68469011 584.82593155 1725.60520935 C576.38551436 1732.23553275 567.77829204 1738.54694332 558.9548378 1744.65623474 C556.30018262 1746.50288061 553.6595121 1748.36860451 551.01929092 1750.23582458 C540.85596293 1757.40084769 530.62932886 1764.30128709 519.95288467 1770.67723083 C515.28529253 1773.46541748 510.70998005 1776.39086617 506.12866592 1779.31785583 C496.76632088 1785.26813347 487.21762726 1790.85177795 477.56616592 1796.31785583 C476.85734268 1796.7218158 476.14851944 1797.12577576 475.41821671 1797.54197693 C433.11800946 1821.61086376 389.01703223 1841.98002537 343.56616592 1859.31785583 C342.39956436 1859.76483826 341.2329628 1860.21182068 340.03100967 1860.67234802 C262.80422279 1890.10923248 181.45369158 1908.1146118 99.31616592 1916.50535583 C98.55635422 1916.58426056 97.79654251 1916.66316528 97.01370621 1916.74446106 C91.20338519 1917.34092425 85.38820318 1917.85014532 79.56616592 1918.31785583 C78.48041275 1918.4061264 77.39465958 1918.49439697 76.27600479 1918.58534241 C53.25178344 1920.39427517 30.28861519 1920.68106567 7.20220947 1920.63591385 C4.27352976 1920.63027373 1.34485585 1920.62745316 -1.58382797 1920.62483215 C-28.46757958 1920.58984868 -55.24909549 1920.41252894 -82.01049423 1917.57432556 C-84.58054314 1917.30232915 -87.15159377 1917.04158377 -89.72289658 1916.78172302 C-177.59916174 1907.79977143 -263.60744677 1887.94264268 -359.43383408 1850.31785583 C-360.50472275 1849.88150818 -361.57561142 1849.44516052 -362.67895126 1848.99559021 C-398.7639705 1834.20215687 -434.31196133 1817.27923078 -468.04858017 1797.69187927 C-470.80683395 1796.10298958 -473.59111974 1794.56635476 -476.3810997 1793.03416443 C-528.90929374 1764.06115269 -578.18913207 1727.61010882 -623.43383408 1688.31785583 C-624.19180283 1687.66172302 -624.94977158 1687.00559021 -625.73070908 1686.32957458 C-630.19684707 1682.44403453 -634.59226084 1678.48175815 -638.98461533 1674.51316833 C-641.17682622 1672.54822014 -643.39231109 1670.61576541 -645.62133408 1668.69285583 C-648.75482607 1665.96753414 -651.68049985 1663.09580516 -654.58715439 1660.13206482 C-656.24125453 1658.5070492 -657.93514006 1657.02103187 -659.71117783 1655.53269958 C-665.92066737 1650.13171501 -671.66317575 1644.2372151 -677.47021103 1638.41184998 C-679.49147675 1636.38522603 -681.51802981 1634.36400036 -683.5451622 1632.34324646 C-694.96438994 1620.92999747 -694.96438994 1620.92999747 -699.96288681 1615.03831482 C-702.6763812 1611.86453972 -705.57056354 1608.85599167 -708.43383408 1605.81785583 C-713.19981273 1600.73206723 -717.92039619 1595.63075918 -722.43383408 1590.31785583 C-723.21500595 1589.40391052 -723.99617783 1588.48996521 -724.80102158 1587.54832458 C-735.48418701 1575.01272439 -746.0371013 1562.36659585 -755.97729111 1549.23094177 C-757.68922873 1546.98240955 -759.41885825 1544.7479717 -761.14867783 1542.51316833 C-768.92706221 1532.43226944 -776.38275551 1522.21651379 -783.49242783 1511.65379333 C-785.66038711 1508.43582728 -787.88792099 1505.27408691 -790.176754 1502.14134216 C-815.06807842 1468.05248769 -835.61263921 1430.22115274 -854.72338486 1392.67576599 C-856.26440973 1389.65046538 -857.81507892 1386.63032271 -859.36742783 1383.61082458 C-896.16030689 1311.57950962 -921.60640504 1233.02710796 -952.68383408 1056.25535583 C-952.79953247 1055.09319046 -952.79953247 1055.09319046 -952.91756821 1053.907547 C-953.49210414 1048.04940923 -953.97748719 1042.1862857 -954.43383408 1036.31785583 C-954.52103714 1035.23035034 -954.6082402 1034.14284485 -954.69808578 1033.02238464 C-956.49748604 1009.9980561 -956.79704244 987.04034413 -956.75189209 963.95410156 C-956.74625159 961.02501877 -956.74343127 958.09594176 -956.74081039 955.16685486 C-956.705824 928.27544707 -956.4879866 901.50836615 -953.68383408 874.73747253 C-953.42061922 872.18995627 -953.17382002 869.64121722 -952.92992783 867.09178162 C-944.48072779 779.51391747 -924.20277635 693.07044499 -858.43383408 535.31785583 C-857.84098405 534.10483988 -857.24821293 532.89178536 -856.65551376 531.67869568 C-848.44980601 514.90702029 -839.86625438 498.4407138 -830.43383408 482.31785583 C-829.81927353 481.26034119 -829.20471298 480.20282654 -828.57152939 479.11326599 C-816.08765391 457.65719342 -803.05497801 436.53199146 -788.77123642 416.22019958 C-787.34695303 414.19427477 -785.93133689 412.1624454 -784.51586533 410.13035583 C-777.69380041 400.36808952 -770.64347915 390.79669209 -763.43383408 381.31785583 C-763.00892685 380.75646912 -762.58401962 380.1950824 -762.14623642 379.61668396 C-755.59568429 370.96569716 -748.79542751 362.53330876 -741.92211533 354.13816833 C-740.61974029 352.54523719 -739.32317376 350.94756063 -738.02758408 349.34910583 C-729.37423716 338.68918572 -720.44886383 328.28906614 -711.10180283 318.23191833 C-709.03199019 315.97118594 -707.00175277 313.69074803 -704.98852158 311.38035583 C-694.18812243 299.00001425 -682.59795959 287.37813019 -670.99633408 275.75535583 C-670.33890213 275.09533569 -669.68147018 274.43531555 -669.00411606 273.7552948 C-656.31407971 261.02592268 -656.31407971 261.02592268 -650.15868759 255.79759216 C-647.0432386 253.12487648 -644.09985332 250.26600854 -641.12133408 247.44285583 C-635.89434747 242.5229181 -630.57520546 237.86410901 -624.96508408 233.38426208 C-622.43245254 231.31672801 -620.02652247 229.15672243 -617.62133408 226.94285583 C-613.24874971 222.96277117 -608.69214117 219.30438087 -604.02392197 215.68333435 C-600.15825626 212.68256802 -596.34476271 209.62824431 -592.56176376 206.52391052 C-584.68540344 200.06076356 -576.66185631 193.84120546 -568.45385361 187.80516052 C-567.13698096 186.83557046 -565.82271501 185.86242699 -564.51147079 184.88523865 C-535.21801993 163.05816316 -504.11682515 143.45414745 -472.43383408 125.31785583 C-471.44576767 124.74760681 -470.45770126 124.17735779 -469.43969345 123.58982849 C-396.84812142 81.80581618 -317.6642841 49.92766565 -92.87133408 4.06785583 C-91.75492538 3.9522934 -91.75492538 3.9522934 -90.61596298 3.83439636 C-84.89442478 3.25004941 -79.16781046 2.76282897 -73.43383408 2.31785583 C-72.32136307 2.23065277 -71.20889206 2.14344971 -70.06270981 2.05360413 C-46.70879784 0.28500787 -23.41381955 -0.04531195 0 0 Z " fill="#E31F25" transform="translate(956.4338340759277,-0.3178558349609375)"/>
<path d="M0 0 C221.1 0 442.2 0 670 0 C671.32 8.58 672.64 17.16 674 26 C675.5138682 32.42371102 677.0736947 38.70566727 679 45 C679.25652344 45.84369141 679.51304687 46.68738281 679.77734375 47.55664062 C687.10876586 71.32237497 697.36973141 94.77503265 712 115 C712.43006348 115.59844727 712.86012695 116.19689453 713.30322266 116.81347656 C734.26641989 145.84841617 759.60921108 170.34319095 791 188 C791.73492676 188.41459473 792.46985352 188.82918945 793.22705078 189.25634766 C850.87626323 221.40709247 918.47132776 228.81255426 982 211 C1028.22679234 197.24135085 1072.21652218 169.1798838 1102 131 C1102.78890625 130.01644531 1103.5778125 129.03289062 1104.390625 128.01953125 C1122.51098458 105.24262312 1135.72748855 79.5373211 1145 52 C1145.25716797 51.25411621 1145.51433594 50.50823242 1145.77929688 49.73974609 C1151.22622104 33.73469124 1153.90891674 16.72866606 1156 0 C1377.1 0 1598.2 0 1826 0 C1826 19.56750026 1826 19.56750026 1825.23046875 28.8671875 C1825.14993256 29.90203278 1825.06939636 30.93687805 1824.98641968 32.00308228 C1824.72768483 35.29437858 1824.45849657 38.58469232 1824.1875 41.875 C1824.09596649 43.0081665 1824.00443298 44.14133301 1823.91012573 45.30883789 C1822.56864996 61.90863026 1821.17434123 78.48513109 1819 95 C1818.91705688 95.63629333 1818.83411377 96.27258667 1818.74865723 96.92816162 C1814.19828653 131.76895106 1807.49596728 165.91478353 1799 200 C1798.83520142 200.66390747 1798.67040283 201.32781494 1798.50061035 202.01184082 C1786.04391071 252.10367556 1769.14430711 300.92597989 1748 348 C1747.57621063 348.94462097 1747.57621063 348.94462097 1747.14385986 349.9083252 C1735.6961393 375.37973256 1723.38869962 400.37082094 1709.40625 424.55029297 C1708.16572765 426.71130012 1706.94950482 428.88245382 1705.75 431.06640625 C1695.76648546 449.23508971 1684.72932981 466.90923599 1673 484 C1672.10006348 485.32148049 1671.20033191 486.64310057 1670.30078125 487.96484375 C1660.55567017 502.24653086 1650.44572268 516.22303492 1640 530 C1639.35828857 530.84860596 1639.35828857 530.84860596 1638.70361328 531.71435547 C1627.96896074 545.88954718 1616.65708807 559.57696019 1605 573 C1604.34386719 573.75796875 1603.68773437 574.5159375 1603.01171875 575.296875 C1599.15704347 579.72753624 1595.23277326 584.09457995 1591.296875 588.453125 C1589.84444159 590.0636464 1588.39599324 591.67777857 1586.953125 593.296875 C1576.79462532 604.67744983 1566.33067041 615.75749434 1555.5625 626.5625 C1554.82974854 627.29984375 1554.09699707 628.0371875 1553.34204102 628.796875 C1549.26746649 632.85988585 1545.0883962 636.73139935 1540.73022461 640.48803711 C1538.72533353 642.24001827 1536.84905277 644.08490963 1535 646 C1531.87154036 649.17089998 1528.63144648 652.1256996 1525.25390625 655.02734375 C1523.04037287 656.96466499 1520.87796285 658.95100136 1518.72192383 660.9519043 C1513.57749373 665.72308696 1508.32314559 670.27714251 1502.85546875 674.6796875 C1499.65383434 677.2812892 1496.51381069 679.94835385 1493.375 682.625 C1488.35096211 686.89270767 1483.24471687 691.00740022 1478 695 C1476.77827652 695.94092691 1475.55696082 696.88238343 1474.3359375 697.82421875 C1470.66129773 700.65453089 1466.97341337 703.46695885 1463.27832031 706.27050781 C1461.81750353 707.37942617 1460.35836298 708.49055823 1458.90136719 709.60449219 C1443.36578851 721.45266637 1427.03479061 732.12614706 1410.72387695 742.86334229 C1408.49403224 744.33361555 1406.27049431 745.81330228 1404.046875 747.29296875 C1383.7554069 760.71258143 1362.49038891 772.63044476 1341 784 C1340.0733252 784.49419434 1339.14665039 784.98838867 1338.19189453 785.49755859 C1262.96520642 825.59997246 1181.51670623 854.78582548 995 887 C993.86739746 887.11327637 992.73479492 887.22655273 991.56787109 887.34326172 C967.27735675 889.72675196 943.03551947 890.18854585 918.64672852 890.18530273 C915.447126 890.18522206 912.24766849 890.19208694 909.0480957 890.20581055 C877.04059791 890.3404796 845.38134256 888.84574263 813.5625 885.25 C812.39541504 885.12061035 811.22833008 884.9912207 810.02587891 884.85791016 C790.54258423 882.68840182 771.23193659 879.97411863 751.96472168 876.36529541 C748.73172134 875.76419236 745.49418263 875.18811392 742.2578125 874.60546875 C680.70714904 863.31011042 620.70641839 845.1374517 563 821 C562.3528302 820.7305658 561.7056604 820.46113159 561.03887939 820.18353271 C523.71880872 804.64501634 487.07684974 786.79636472 452.38867188 766.02661133 C449.76985267 764.46041405 447.14566856 762.90474883 444.51757812 761.35424805 C433.40524415 754.77418756 422.54106857 747.89569359 411.81738281 740.70043945 C409.37188911 739.06041374 406.92071422 737.42915982 404.46875 735.79882812 C384.38074473 722.39785131 364.75588614 708.2170397 346 693 C344.39600039 691.72895583 342.79182892 690.4581285 341.1875 689.1875 C336.68050181 685.58472715 332.27365216 681.87362026 327.88305664 678.13085938 C324.50773075 675.25790527 321.08755371 672.45548499 317.625 669.6875 C311.63623061 664.82107685 306.0691332 659.53143107 300.45703125 654.2421875 C296.08370103 650.12431156 291.60246007 646.14702956 286.96875 642.32421875 C286.3190625 641.78410156 285.669375 641.24398437 285 640.6875 C284.4225 640.21699219 283.845 639.74648437 283.25 639.26171875 C282 638 282 638 282 636 C281.19042847 635.67829834 281.19042847 635.67829834 280.36450195 635.35009766 C277.1510387 633.51525493 274.74573001 631.01140511 272.16796875 628.3984375 C271.61313309 627.84314362 271.05829742 627.28784973 270.48664856 626.71572876 C269.31351211 625.53957558 268.14280271 624.36099724 266.97436523 623.18017578 C265.20924266 621.39696546 263.43641977 619.62171976 261.66210938 617.84765625 C256.4662863 612.63542059 251.34283083 607.41311173 246.5637207 601.81103516 C243.65279498 598.43972414 240.5625651 595.23305841 237.5 592 C230.64020641 584.75832099 224.06065437 577.30737248 217.625 569.6875 C216.91911743 568.8519458 216.91911743 568.8519458 216.19897461 567.99951172 C211.74231722 562.71236048 207.34942409 557.37577334 203 552 C202.55043945 551.44618652 202.10087891 550.89237305 201.63769531 550.32177734 C174.95253158 517.41248436 150.67643902 482.39783143 129 446 C128.47615723 445.12359863 127.95231445 444.24719727 127.41259766 443.34423828 C85.69038119 373.3448474 53.03351669 297.78407821 32 219 C31.79310547 218.22849609 31.58621094 217.45699219 31.37304688 216.66210938 C24.66071317 191.60404249 18.66195059 166.52140649 14 141 C13.8035791 139.94538574 13.6071582 138.89077148 13.40478516 137.80419922 C7.92521051 108.12358164 4.67056582 77.986887 2.30859375 47.91259766 C2.00796181 44.10094618 1.69239834 40.29075549 1.375 36.48046875 C1.18635078 34.13290457 0.99878979 31.78525259 0.8125 29.4375 C0.72846924 28.42268555 0.64443848 27.40787109 0.55786133 26.36230469 C-0.1108164 17.50539714 0 8.96948248 0 0 Z " fill="#FEFEFE" transform="translate(47,983)"/>
<path d="M0 0 C2.92168431 0.00543587 5.84336052 0.00780605 8.76504898 0.00987244 C35.70161924 0.03956911 62.49874402 0.32621152 89.31781387 3.0900116 C91.62762307 3.3240838 93.93847128 3.54212432 96.25024796 3.75584412 C177.32432227 11.28063162 257.99553917 29.36430594 481.56616592 126.31785583 C483.76909638 127.60334553 485.97223234 128.88848309 488.17554092 130.17332458 C509.16048444 142.44756485 529.62566249 155.40981005 549.56616592 169.31785583 C550.2967421 169.82558533 551.02731827 170.33331482 551.78003311 170.85643005 C562.21588258 178.11767265 572.44756881 185.6216058 582.56616592 193.31785583 C583.12755264 193.74276306 583.68893936 194.16767029 584.2673378 194.60545349 C592.9183246 201.15600562 601.350713 207.9562624 609.74585342 214.82957458 C611.33878457 216.13194962 612.93646112 217.42851616 614.53491592 218.72410583 C624.98810951 227.20963945 635.18664852 235.97151728 645.10522842 245.07566833 C647.31403539 247.08813691 649.55309891 249.05443599 651.81616592 251.00535583 C654.92006119 253.69918363 657.81421743 256.54090154 660.69032669 259.47445679 C662.50612311 261.25885138 664.37986623 262.91938142 666.31396866 264.57395935 C670.40754314 268.13480235 674.27207147 271.87877493 678.10132217 275.72019958 C678.78367432 276.401595 679.46602646 277.08299042 680.16905594 277.78503418 C681.59961029 279.21491324 683.0289236 280.64603495 684.45703506 282.07835388 C686.62315666 284.24983295 688.79456766 286.41591909 690.96655655 288.58152771 C692.3659658 289.98159785 693.76506476 291.38197822 695.16382217 292.78269958 C696.12192543 293.73776649 696.12192543 293.73776649 697.09938431 294.71212769 C700.87974206 298.51188317 704.47856812 302.42176086 707.97472 306.48486328 C710.59386432 309.50153634 713.33395796 312.40391277 716.06616592 315.31785583 C720.65767288 320.24290047 725.19849469 325.19184169 729.56616592 330.31785583 C730.73985733 331.6907074 730.73985733 331.6907074 731.93725967 333.09129333 C734.83018607 336.48624018 737.70190478 339.89870522 740.56616592 343.31785583 C741.11224503 343.96963806 741.65832413 344.62142029 742.22095108 345.29295349 C750.44353116 355.13231982 758.36834886 365.15748163 766.09936905 375.38670349 C767.43669124 377.14739233 768.78597383 378.89755891 770.14429092 380.64207458 C783.11169173 397.31145917 794.97556564 414.669872 806.56616592 432.31785583 C807.08453018 433.10579529 807.60289444 433.89373474 808.13696671 434.70555115 C811.31899226 439.55177065 814.4598899 444.4227516 817.56616592 449.31785583 C818.06680557 450.10660095 818.56744522 450.89534607 819.08325577 451.70799255 C827.69679713 465.33131573 835.76252742 479.21696231 843.56616592 493.31785583 C844.32268448 494.67427185 844.32268448 494.67427185 845.09448624 496.05809021 C887.01928228 571.34385841 917.70253765 651.84398439 960.3532753 870.02708435 C960.56238684 872.27719173 960.78820048 874.52498685 961.01929092 876.77293396 C966.63144882 932.06618758 966.63554473 990.58717472 960.82263565 1045.86265564 C960.54909353 1048.48129088 960.28878191 1051.10103959 960.03003311 1053.72117615 C951.00889716 1144.2283429 930.28105247 1233.95611901 864.56616592 1387.31785583 C864.07213272 1388.33460388 863.57809952 1389.35135193 863.06909561 1390.39891052 C856.2001587 1404.49496653 848.8314574 1418.21757234 841.00464249 1431.80369568 C839.75247669 1433.99222307 838.5222257 1436.1899744 837.30835342 1438.39988708 C821.6940879 1466.81593357 803.5900804 1494.07732856 784.56616592 1520.31785583 C784.02572647 1521.06406189 783.48528702 1521.81026794 782.92847061 1522.5790863 C769.49334553 1541.07822007 755.4660763 1559.06995978 740.64917374 1576.48313904 C737.7566443 1579.8878662 734.92776688 1583.33543006 732.12866592 1586.81785583 C728.26226425 1591.57276633 724.18087725 1596.08447228 719.99023819 1600.55223083 C717.31231953 1603.4086774 714.69113584 1606.30131598 712.12085342 1609.25535583 C701.46958564 1621.48238385 690.01564827 1632.96995743 678.56616592 1644.44285583 C677.98226089 1645.02934906 677.39835587 1645.61584229 676.79675674 1646.22010803 C665.3132319 1657.74377237 665.3132319 1657.74377237 659.20093155 1662.89744568 C657.40203115 1664.46046876 655.73435749 1666.11674106 654.06616592 1667.81785583 C651.07744256 1670.85380508 647.94910113 1673.66294242 644.72241592 1676.44285583 C642.36653635 1678.49144677 640.06109132 1680.58988585 637.75366592 1682.69285583 C633.43355802 1686.5914898 628.98545211 1690.29289441 624.46069717 1693.95066833 C621.95283958 1696.0016288 619.48555156 1698.09182386 617.02954483 1700.20433044 C610.2235741 1706.04683683 603.17454814 1711.5155483 596.02319717 1716.92723083 C592.25795392 1719.77911071 588.53805356 1722.68469011 584.82593155 1725.60520935 C576.38551436 1732.23553275 567.77829204 1738.54694332 558.9548378 1744.65623474 C556.30018262 1746.50288061 553.6595121 1748.36860451 551.01929092 1750.23582458 C540.85596293 1757.40084769 530.62932886 1764.30128709 519.95288467 1770.67723083 C515.28529253 1773.46541748 510.70998005 1776.39086617 506.12866592 1779.31785583 C496.76632088 1785.26813347 487.21762726 1790.85177795 477.56616592 1796.31785583 C476.85734268 1796.7218158 476.14851944 1797.12577576 475.41821671 1797.54197693 C433.11800946 1821.61086376 389.01703223 1841.98002537 343.56616592 1859.31785583 C342.39956436 1859.76483826 341.2329628 1860.21182068 340.03100967 1860.67234802 C262.80422279 1890.10923248 181.45369158 1908.1146118 99.31616592 1916.50535583 C98.55635422 1916.58426056 97.79654251 1916.66316528 97.01370621 1916.74446106 C91.20338519 1917.34092425 85.38820318 1917.85014532 79.56616592 1918.31785583 C78.48041275 1918.4061264 77.39465958 1918.49439697 76.27600479 1918.58534241 C53.25178344 1920.39427517 30.28861519 1920.68106567 7.20220947 1920.63591385 C4.27352976 1920.63027373 1.34485585 1920.62745316 -1.58382797 1920.62483215 C-28.46757958 1920.58984868 -55.24909549 1920.41252894 -82.01049423 1917.57432556 C-84.58054314 1917.30232915 -87.15159377 1917.04158377 -89.72289658 1916.78172302 C-177.59916174 1907.79977143 -263.60744677 1887.94264268 -359.43383408 1850.31785583 C-360.50472275 1849.88150818 -361.57561142 1849.44516052 -362.67895126 1848.99559021 C-398.7639705 1834.20215687 -434.31196133 1817.27923078 -468.04858017 1797.69187927 C-470.80683395 1796.10298958 -473.59111974 1794.56635476 -476.3810997 1793.03416443 C-528.90929374 1764.06115269 -578.18913207 1727.61010882 -623.43383408 1688.31785583 C-624.19180283 1687.66172302 -624.94977158 1687.00559021 -625.73070908 1686.32957458 C-630.19684707 1682.44403453 -634.59226084 1678.48175815 -638.98461533 1674.51316833 C-641.17682622 1672.54822014 -643.39231109 1670.61576541 -645.62133408 1668.69285583 C-648.75482607 1665.96753414 -651.68049985 1663.09580516 -654.58715439 1660.13206482 C-656.24125453 1658.5070492 -657.93514006 1657.02103187 -659.71117783 1655.53269958 C-665.92066737 1650.13171501 -671.66317575 1644.2372151 -677.47021103 1638.41184998 C-679.49147675 1636.38522603 -681.51802981 1634.36400036 -683.5451622 1632.34324646 C-694.96438994 1620.92999747 -694.96438994 1620.92999747 -699.96288681 1615.03831482 C-702.6763812 1611.86453972 -705.57056354 1608.85599167 -708.43383408 1605.81785583 C-713.19981273 1600.73206723 -717.92039619 1595.63075918 -722.43383408 1590.31785583 C-723.21500595 1589.40391052 -723.99617783 1588.48996521 -724.80102158 1587.54832458 C-735.48418701 1575.01272439 -746.0371013 1562.36659585 -755.97729111 1549.23094177 C-757.68922873 1546.98240955 -759.41885825 1544.7479717 -761.14867783 1542.51316833 C-768.92706221 1532.43226944 -776.38275551 1522.21651379 -783.49242783 1511.65379333 C-785.66038711 1508.43582728 -787.88792099 1505.27408691 -790.176754 1502.14134216 C-815.06807842 1468.05248769 -835.61263921 1430.22115274 -854.72338486 1392.67576599 C-856.26440973 1389.65046538 -857.81507892 1386.63032271 -859.36742783 1383.61082458 C-896.16030689 1311.57950962 -921.60640504 1233.02710796 -952.68383408 1056.25535583 C-952.79953247 1055.09319046 -952.79953247 1055.09319046 -952.91756821 1053.907547 C-953.49210414 1048.04940923 -953.97748719 1042.1862857 -954.43383408 1036.31785583 C-954.52103714 1035.23035034 -954.6082402 1034.14284485 -954.69808578 1033.02238464 C-956.49748604 1009.9980561 -956.79704244 987.04034413 -956.75189209 963.95410156 C-956.74625159 961.02501877 -956.74343127 958.09594176 -956.74081039 955.16685486 C-956.705824 928.27544707 -956.4879866 901.50836615 -953.68383408 874.73747253 C-953.42061922 872.18995627 -953.17382002 869.64121722 -952.92992783 867.09178162 C-944.48072779 779.51391747 -924.20277635 693.07044499 -858.43383408 535.31785583 C-857.84098405 534.10483988 -857.24821293 532.89178536 -856.65551376 531.67869568 C-848.44980601 514.90702029 -839.86625438 498.4407138 -830.43383408 482.31785583 C-829.81927353 481.26034119 -829.20471298 480.20282654 -828.57152939 479.11326599 C-816.08765391 457.65719342 -803.05497801 436.53199146 -788.77123642 416.22019958 C-787.34695303 414.19427477 -785.93133689 412.1624454 -784.51586533 410.13035583 C-777.69380041 400.36808952 -770.64347915 390.79669209 -763.43383408 381.31785583 C-763.00892685 380.75646912 -762.58401962 380.1950824 -762.14623642 379.61668396 C-755.59568429 370.96569716 -748.79542751 362.53330876 -741.92211533 354.13816833 C-740.61974029 352.54523719 -739.32317376 350.94756063 -738.02758408 349.34910583 C-729.37423716 338.68918572 -720.44886383 328.28906614 -711.10180283 318.23191833 C-709.03199019 315.97118594 -707.00175277 313.69074803 -704.98852158 311.38035583 C-694.18812243 299.00001425 -682.59795959 287.37813019 -670.99633408 275.75535583 C-670.33890213 275.09533569 -669.68147018 274.43531555 -669.00411606 273.7552948 C-656.31407971 261.02592268 -656.31407971 261.02592268 -650.15868759 255.79759216 C-647.0432386 253.12487648 -644.09985332 250.26600854 -641.12133408 247.44285583 C-635.89434747 242.5229181 -630.57520546 237.86410901 -624.96508408 233.38426208 C-622.43245254 231.31672801 -620.02652247 229.15672243 -617.62133408 226.94285583 C-613.24874971 222.96277117 -608.69214117 219.30438087 -604.02392197 215.68333435 C-600.15825626 212.68256802 -596.34476271 209.62824431 -592.56176376 206.52391052 C-584.68540344 200.06076356 -576.66185631 193.84120546 -568.45385361 187.80516052 C-567.13698096 186.83557046 -565.82271501 185.86242699 -564.51147079 184.88523865 C-535.21801993 163.05816316 -504.11682515 143.45414745 -472.43383408 125.31785583 C-471.44576767 124.74760681 -470.45770126 124.17735779 -469.43969345 123.58982849 C-396.84812142 81.80581618 -317.6642841 49.92766565 -92.87133408 4.06785583 C-91.75492538 3.9522934 -91.75492538 3.9522934 -90.61596298 3.83439636 C-84.89442478 3.25004941 -79.16781046 2.76282897 -73.43383408 2.31785583 C-72.32136307 2.23065277 -71.20889206 2.14344971 -70.06270981 2.05360413 C-46.70879784 0.28500787 -23.41381955 -0.04531195 0 0 Z M-81.74633408 50.63035583 C-82.89583542 50.74079224 -84.04533676 50.85122864 -85.22967148 50.9650116 C-101.76878428 52.55632013 -118.24300811 54.3367591 -134.66479111 56.89012146 C-137.240276 57.2879569 -139.81791489 57.65924538 -142.39867783 58.02098083 C-154.18693316 59.71542676 -165.78212365 62.2370695 -177.41039658 64.79051208 C-181.71070266 65.73401208 -186.01346704 66.64667085 -190.33227158 67.50144958 C-243.02050583 77.94735414 -294.9202616 94.58190861 -344.43383408 115.31785583 C-345.04960312 115.57524536 -345.66537216 115.83263489 -346.29980087 116.0978241 C-364.49278018 123.71094624 -382.34956094 131.91732493 -400.03539658 140.64207458 C-403.2783495 142.24118585 -406.52740581 143.82724575 -409.77758408 145.41160583 C-423.63272221 152.20530078 -437.10061631 159.55353224 -450.43383408 167.31785583 C-451.5000499 167.93676697 -452.56626572 168.5556781 -453.66479111 169.19334412 C-477.25818883 182.92248421 -500.23565441 197.42750793 -522.43383408 213.31785583 C-523.96888761 214.40784426 -525.50404285 215.49768946 -527.03930283 216.58738708 C-537.01271371 223.69777173 -546.73013536 231.10183372 -556.35131454 238.6806488 C-558.30175473 240.21401948 -560.25875972 241.73843818 -562.21899033 243.25926208 C-569.07114869 248.58612083 -575.75946424 254.06819894 -582.35570908 259.70848083 C-585.15049597 262.09257675 -588.00434452 264.39591099 -590.87133408 266.69285583 C-596.55524218 271.31310863 -601.86707922 276.29491894 -607.20336533 281.30613708 C-609.69139157 283.63888634 -612.22074337 285.90836048 -614.80883408 288.13035583 C-618.10604834 290.97157239 -621.16123483 293.99980662 -624.18383408 297.13035583 C-626.05199342 298.94662186 -627.95153896 300.63027413 -629.92992783 302.32176208 C-635.15585381 306.86283646 -640.02398833 311.75802654 -644.90673447 316.66038513 C-646.49343354 318.2524455 -648.08541149 319.83908574 -649.6779747 321.42527771 C-654.56743357 326.31149341 -659.36274051 331.23488801 -663.85741806 336.4919281 C-666.61880901 339.69038604 -669.53620474 342.74326285 -672.43383408 345.81785583 C-677.19981273 350.90364444 -681.92039619 356.00495249 -686.43383408 361.31785583 C-687.21500595 362.23180115 -687.99617783 363.14574646 -688.80102158 364.08738708 C-700.0064235 377.2357783 -711.03241668 390.52144787 -721.43383408 404.31785583 C-721.88935654 404.91888123 -722.344879 405.51990662 -722.81420517 406.1391449 C-744.71043687 435.03298868 -765.16984047 464.981897 -783.43383408 496.31785583 C-783.86840927 497.06228943 -784.30298447 497.80672302 -784.75072861 498.57371521 C-827.45825858 571.97311024 -860.19308393 650.16329523 -906.68383408 880.56785583 C-906.76691818 881.47912231 -906.85000229 882.39038879 -906.9356041 883.32926941 C-908.5637601 901.38465607 -909.43383408 919.13946895 -909.43383408 937.31785583 C-688.33383408 937.31785583 -467.23383408 937.31785583 -239.43383408 937.31785583 C-238.11383408 928.73785583 -236.79383408 920.15785583 -235.43383408 911.31785583 C-233.59745505 903.56425551 -231.71591304 895.93687496 -229.43383408 888.31785583 C-229.18826767 887.49188904 -228.94270126 886.66592224 -228.68969345 885.81492615 C-215.27790363 841.84619568 -186.81565782 799.62502513 -150.43383408 771.31785583 C-149.49579941 770.57318054 -149.49579941 770.57318054 -148.53881454 769.8134613 C-138.91097902 762.17046231 -129.20711452 755.24340066 -118.43383408 749.31785583 C-117.60142197 748.85524353 -116.76900986 748.39263123 -115.91137314 747.91600037 C-79.24999179 727.68971224 -40.48016534 717.06994482 1.44116592 717.13035583 C2.60218323 717.13126221 2.60218323 717.13126221 3.78665543 717.13218689 C53.8860479 717.23817768 103.78545864 731.5410846 144.56616592 761.31785583 C145.11385635 761.71682068 145.66154678 762.11578552 146.22583389 762.52684021 C163.77267914 775.43366982 180.28756137 789.9830859 193.56616592 807.31785583 C194.07760147 807.97463318 194.58903702 808.63141052 195.11597061 809.30809021 C204.46515724 821.36007112 212.44687088 833.83144568 219.56616592 847.31785583 C220.2231044 848.54979675 220.2231044 848.54979675 220.89331436 849.80662537 C235.33164602 877.25694328 242.48919333 906.74056142 246.56616592 937.31785583 C467.66616592 937.31785583 688.76616592 937.31785583 916.56616592 937.31785583 C915.72884989 908.24400849 915.72884989 908.24400849 913.56616592 879.31785583 C913.48946671 878.53003723 913.41276749 877.74221863 913.33374405 876.93052673 C910.85853576 851.52246564 907.83698485 826.3245767 903.2673378 801.2040863 C902.62855338 797.66363703 902.0210143 794.11970268 901.42554092 790.57176208 C891.29054598 731.42016423 873.54935836 672.71261043 850.56616592 617.31785583 C850.09501358 616.18170837 849.62386124 615.04556091 849.13843155 613.87498474 C834.74977865 579.38736243 818.87580505 545.4773516 800.16626358 513.11228943 C798.54729874 510.28490591 796.96416694 507.44013974 795.39038467 504.58738708 C788.2077811 491.60399906 780.42582558 479.14823433 772.20679092 466.79734802 C770.03619046 463.51689887 767.9240597 460.20125545 765.81616592 456.88035583 C753.96553851 438.41902396 741.08687002 420.588359 727.56616592 403.31785583 C726.65075936 402.14340939 725.7353961 400.96892919 724.82007217 399.79441833 C711.17552132 382.3221882 696.85083357 365.43823503 681.97241592 349.00535583 C680.03853413 346.84543591 678.12872231 344.66937298 676.22632217 342.48191833 C666.30050063 331.12522816 655.71433619 320.36820297 645.06616592 309.69285583 C644.1469838 308.76908142 643.22780167 307.84530701 642.28076553 306.89353943 C637.74755234 302.37063742 633.17145763 297.97147265 628.28882217 293.82615662 C626.46482179 292.22912226 624.76316709 290.54854877 623.06616592 288.81785583 C620.07744256 285.78190659 616.94910113 282.97276925 613.72241592 280.19285583 C611.36653635 278.1442649 609.06109132 276.04582582 606.75366592 273.94285583 C602.43355802 270.04422187 597.98545211 266.34281726 593.46069717 262.68504333 C590.95283958 260.63408287 588.48555156 258.54388781 586.02954483 256.43138123 C579.22135369 250.58696876 572.17046165 245.11621795 565.01538467 239.70457458 C562.03395818 237.44671258 559.08085126 235.15823444 556.14819717 232.83738708 C547.00737092 225.61006053 537.67512913 218.83518995 528.00757217 212.32957458 C524.75176952 210.13669371 521.5513867 207.88595781 518.38232803 205.5700531 C486.4428033 182.23902267 451.02102178 162.91782281 415.84155655 144.98924255 C412.77071742 143.42223565 409.70719906 141.84169596 406.64429092 140.25926208 C381.35565134 127.29490068 355.12367612 116.3903681 328.56616592 106.31785583 C327.40536514 105.8737738 326.24456436 105.42969177 325.0485878 104.97215271 C290.95740896 91.97524141 256.19831742 81.7872098 220.83349991 72.88899231 C218.63358854 72.33483944 216.43475452 71.77658184 214.2360878 71.21751404 C172.20206821 60.56455756 129.27980442 54.7940718 86.17779922 50.57756042 C83.58329379 50.31955905 80.99053261 50.0477617 78.39770889 49.77342224 C55.34280437 47.37958437 32.28614757 47.15172169 9.13110733 47.18748474 C5.43849079 47.193171 1.74594641 47.18978063 -1.94666767 47.18406773 C-28.66879074 47.14850342 -55.13731229 48.02217882 -81.74633408 50.63035583 Z M-909.43383408 983.31785583 C-909.50294591 996.66108233 -909.50294591 996.66108233 -908.91820908 1009.93504333 C-908.83486816 1011.15424217 -908.83486816 1011.15424217 -908.7498436 1012.39807129 C-908.56888929 1014.99695385 -908.37759386 1017.59489856 -908.18383408 1020.19285583 C-908.11758835 1021.10004364 -908.05134262 1022.00723145 -907.98308945 1022.94190979 C-906.64475803 1041.13350179 -904.78054798 1059.23005125 -902.43383408 1077.31785583 C-902.34273361 1078.0251886 -902.25163315 1078.73252136 -902.15777206 1079.46128845 C-900.7393542 1090.43823037 -899.15205196 1101.38396338 -897.43383408 1112.31785583 C-897.32400192 1113.02462463 -897.21416977 1113.73139343 -897.10100937 1114.45957947 C-888.31116308 1170.76311374 -872.82665547 1227.12539163 -852.43383408 1280.31785583 C-852.03164658 1281.38004333 -851.62945908 1282.44223083 -851.21508408 1283.53660583 C-839.57221514 1314.20562644 -826.09985499 1343.985814 -811.43383408 1373.31785583 C-810.97236984 1374.2407843 -810.97236984 1374.2407843 -810.5015831 1375.18235779 C-802.59025723 1390.97114165 -794.15015103 1406.37819633 -785.09350204 1421.53807068 C-783.5009993 1424.20536051 -781.92107204 1426.87970833 -780.34399033 1429.55613708 C-763.1404085 1458.63791443 -743.84826253 1486.41011372 -723.43383408 1513.31785583 C-722.98475693 1513.91018005 -722.53567978 1514.50250427 -722.07299423 1515.11277771 C-716.35025067 1522.64619135 -710.4580492 1530.02257405 -704.43383408 1537.31785583 C-702.99624106 1539.08861366 -701.55874241 1540.85944809 -700.12133408 1542.63035583 C-692.25373638 1552.23264955 -684.19251593 1561.64229249 -675.70605087 1570.7040863 C-673.09389618 1573.49621501 -670.54013049 1576.32657374 -668.03149033 1579.21238708 C-658.48517946 1590.17002746 -648.28827683 1600.5643383 -638.05883408 1610.88035583 C-637.23222275 1611.71993835 -636.40561142 1612.55952087 -635.55395126 1613.42454529 C-634.78470322 1614.19500183 -634.01545517 1614.96545837 -633.22289658 1615.75926208 C-632.53921005 1616.4470575 -631.85552353 1617.13485291 -631.15111923 1617.8434906 C-629.55815125 1619.53499053 -629.55815125 1619.53499053 -627.43383408 1619.31785583 C-627.43383408 1619.97785583 -627.43383408 1620.63785583 -627.43383408 1621.31785583 C-626.15509448 1622.65037892 -626.15509448 1622.65037892 -624.37133408 1624.06785583 C-620.10043845 1627.69164606 -616.01364073 1631.48271676 -611.93383408 1635.31785583 C-606.84710891 1640.08387462 -601.73523827 1644.79037926 -596.43383408 1649.31785583 C-595.36583909 1650.23939873 -594.29816188 1651.16130996 -593.23070908 1652.08348083 C-586.05368071 1658.27298956 -578.80849907 1664.36399786 -571.43383408 1670.31785583 C-570.6732872 1670.93660583 -569.91274033 1671.55535583 -569.12914658 1672.19285583 C-555.96454924 1682.83091429 -542.39389047 1692.92983115 -528.61742783 1702.75779724 C-526.55158752 1704.23372743 -524.49225973 1705.71833012 -522.43383408 1707.20457458 C-498.05756695 1724.71070379 -472.49844617 1740.47043455 -446.43383408 1755.31785583 C-445.7341954 1755.71794861 -445.03455673 1756.11804138 -444.31371689 1756.53025818 C-399.98256086 1781.80679451 -353.43721154 1803.0365204 -305.43383408 1820.31785583 C-304.74688461 1820.56624207 -304.05993515 1820.8146283 -303.35216904 1821.07054138 C-261.33931063 1836.24139001 -218.31405493 1847.97111081 -174.43383408 1856.31785583 C-173.3324913 1856.52797302 -172.23114853 1856.73809021 -171.09643173 1856.95457458 C-167.68904328 1857.60182639 -164.28054258 1858.2427633 -160.87133408 1858.88035583 C-159.88149521 1859.0660614 -158.89165634 1859.25176697 -157.87182236 1859.44309998 C-154.39539034 1860.08486449 -150.91526854 1860.70400114 -147.43383408 1861.31785583 C-146.60874344 1861.46517151 -145.7836528 1861.61248718 -144.93355942 1861.76426697 C-130.02238709 1864.41001985 -115.10414695 1866.4574392 -100.04735947 1868.07322693 C-96.65981062 1868.43870466 -93.27444842 1868.82095416 -89.8889122 1869.20457458 C-59.28195305 1872.59265752 -28.78226193 1873.64546475 1.99066544 1873.51347351 C5.20378772 1873.50255095 8.41686915 1873.50305964 11.63000679 1873.50345898 C36.99611041 1873.50286598 62.05839205 1872.59464404 87.31616592 1870.13035583 C88.4330278 1870.02247742 89.54988968 1869.914599 90.70059586 1869.80345154 C120.23333717 1866.92815898 149.70378465 1863.25242163 178.71631241 1856.92503357 C182.09198262 1856.20582755 185.47668815 1855.53960181 188.86304092 1854.87254333 C269.13976666 1838.88199055 346.83144868 1810.85969166 449.05395889 1757.75535583 C452.09014341 1756.01803276 455.15790867 1754.34438332 458.23193741 1752.67527771 C476.71326488 1742.60334308 494.40806685 1731.2506883 511.81616592 1719.44285583 C512.45339584 1719.01072784 513.09062576 1718.57859985 513.74716568 1718.13337708 C526.92173376 1709.18157727 539.88196191 1699.95422683 552.56616592 1690.31785583 C553.22552139 1689.81850525 553.88487686 1689.31915466 554.5642128 1688.80467224 C566.22082648 1679.97189182 577.59877009 1670.87718768 588.73559952 1661.39671326 C592.09413254 1658.54230786 595.49853432 1655.75843957 598.94116592 1653.00535583 C604.92993532 1648.13893268 610.49703273 1642.84928691 616.10913467 1637.56004333 C620.43400493 1633.48779673 624.88786587 1629.58454346 629.42163467 1625.74754333 C630.02620499 1625.23449646 630.6307753 1624.72144958 631.25366592 1624.19285583 C631.77315811 1623.75715271 632.2926503 1623.32144958 632.82788467 1622.87254333 C635.16841029 1620.7792193 637.34948551 1618.54201905 639.56616592 1616.31785583 C640.96545281 1614.92663938 642.36476316 1613.5354463 643.7647438 1612.14492798 C645.92506656 1609.99818434 648.0825568 1607.84860239 650.23999405 1605.69895935 C651.36962513 1604.5743539 652.50015253 1603.45064801 653.63159561 1602.3278656 C659.25612179 1596.7451057 664.83699305 1591.18730745 669.98266983 1585.15306091 C673.49803257 1581.078904 677.26082301 1577.22370238 680.96069717 1573.31785583 C689.17128349 1564.61429436 696.88437955 1555.48782436 704.56616592 1546.31785583 C705.38528458 1545.3401825 705.38528458 1545.3401825 706.22095108 1544.34275818 C714.96180743 1533.88320815 723.39735487 1523.22972611 731.56616592 1512.31785583 C732.12803604 1511.56778259 732.68990616 1510.81770935 733.26880264 1510.04490662 C752.692508 1484.04618111 770.98657447 1457.22558444 787.56616592 1429.31785583 C788.08710831 1428.44580505 788.60805069 1427.57375427 789.14477921 1426.67527771 C830.87507328 1356.66665844 863.48143983 1281.09597826 884.56616592 1202.31785583 C884.77412796 1201.54314941 884.98209 1200.76844299 885.19635391 1199.97026062 C891.90955287 1174.9175184 897.91569315 1149.83678033 902.56616592 1124.31785583 C902.86079727 1122.7199823 902.86079727 1122.7199823 903.16138077 1121.08982849 C904.42010925 1114.18327953 905.52401436 1107.26009443 906.56616592 1100.31785583 C906.75920303 1099.0610199 906.95224014 1097.80418396 907.15112686 1096.50926208 C911.10568469 1070.58060569 913.3025528 1044.56762173 915.1892128 1018.41551208 C915.47957805 1014.41029786 915.82113428 1010.41169201 916.17554092 1006.41160583 C916.66805684 998.72835761 916.56616592 991.01687364 916.56616592 983.31785583 C695.46616592 983.31785583 474.36616592 983.31785583 246.56616592 983.31785583 C245.24616592 991.89785583 243.92616592 1000.47785583 242.56616592 1009.31785583 C241.05229772 1015.74156686 239.49247123 1022.02352311 237.56616592 1028.31785583 C237.30964249 1029.16154724 237.05311905 1030.00523865 236.78882217 1030.87449646 C229.45740007 1054.6402308 219.19643451 1078.09288848 204.56616592 1098.31785583 C203.92107071 1099.21552673 203.92107071 1099.21552673 203.26294327 1100.1313324 C173.15012672 1141.83889257 131.96193978 1174.76680126 82.57495499 1190.67088318 C80.57442832 1191.31519476 78.58212904 1191.98129712 76.58960342 1192.64988708 C41.82876003 1204.13246085 1.77904678 1207.46390384 -34.43383408 1201.31785583 C-35.31378036 1201.17251404 -36.19372665 1201.02717224 -37.10033798 1200.87742615 C-94.13514482 1191.09668399 -149.62213217 1160.22540988 -185.43383408 1114.31785583 C-186.22274033 1113.33430115 -187.01164658 1112.35074646 -187.82445908 1111.33738708 C-205.94481866 1088.56047895 -219.16132262 1062.85517693 -228.43383408 1035.31785583 C-228.69100204 1034.57197205 -228.94817001 1033.82608826 -229.21313095 1033.05760193 C-234.66005511 1017.05254707 -237.34275082 1000.04652189 -239.43383408 983.31785583 C-460.53383408 983.31785583 -681.63383408 983.31785583 -909.43383408 983.31785583 Z " fill="#2B2B2A" transform="translate(956.4338340759277,-0.3178558349609375)"/>
<path d="M0 0 C18.48739351 15.93373915 33.92709125 33.90250454 45.71484375 55.33984375 C46.2245874 56.26651855 46.2245874 56.26651855 46.74462891 57.21191406 C55.92526601 74.16821273 62.74770201 92.46901156 66.71484375 111.33984375 C66.87855469 112.11150879 67.04226563 112.88317383 67.2109375 113.67822266 C69.80973945 126.70176425 70.02233855 139.79632413 70.08984375 153.02734375 C70.09778961 153.84174927 70.10573547 154.65615479 70.11392212 155.49523926 C70.2286266 170.80587796 68.5909296 185.91293232 64.52734375 200.71484375 C64.31940186 201.4819165 64.11145996 202.24898926 63.8972168 203.03930664 C57.8954666 224.33854106 48.80562571 245.4234402 35.71484375 263.33984375 C34.99554687 264.34273437 34.27625 265.345625 33.53515625 266.37890625 C29.26012857 272.22193716 24.74623048 277.71247511 19.8359375 283.03125 C17.8848603 285.15479811 16.01516093 287.32660056 14.15234375 289.52734375 C10.64798054 293.5357592 6.78966938 296.92542089 2.71484375 300.33984375 C1.43867187 301.46519531 1.43867187 301.46519531 0.13671875 302.61328125 C-8.11714635 309.7621207 -16.99102453 315.63040209 -26.28515625 321.33984375 C-26.88585938 321.71383301 -27.4865625 322.08782227 -28.10546875 322.47314453 C-50.26021859 336.17444102 -74.76718132 343.23962167 -100.28515625 347.33984375 C-101.18258545 347.51563965 -102.08001465 347.69143555 -103.00463867 347.87255859 C-107.18505614 348.46802775 -111.2861107 348.54006464 -115.50390625 348.578125 C-116.39069061 348.58791885 -117.27747498 348.59771271 -118.19113159 348.60780334 C-154.27485939 348.92440331 -154.27485939 348.92440331 -171.28515625 344.33984375 C-173.01690438 343.91136658 -174.74867588 343.48298381 -176.48046875 343.0546875 C-208.94645179 334.68109464 -238.06718412 318.45699896 -262.28515625 295.33984375 C-263.71525245 294.10207083 -265.15193306 292.87182782 -266.59765625 291.65234375 C-270.56649884 288.18773936 -273.95116235 284.41325808 -277.28515625 280.33984375 C-277.69137207 279.84597168 -278.09758789 279.35209961 -278.51611328 278.84326172 C-297.40676237 255.75315572 -311.15458526 229.63043604 -319.03515625 200.83984375 C-319.22198975 200.16598633 -319.40882324 199.49212891 -319.60131836 198.79785156 C-323.48874622 183.6674582 -324.81005671 168.53642693 -324.66015625 152.96484375 C-324.65616821 152.11710388 -324.65218018 151.26936401 -324.64807129 150.39593506 C-324.57712396 137.50201605 -323.93673853 124.99184408 -321.28515625 112.33984375 C-321.15125488 111.63456543 -321.01735352 110.92928711 -320.87939453 110.20263672 C-317.34405677 91.62604374 -310.28667713 73.91123208 -301.28515625 57.33984375 C-300.6715625 56.17453125 -300.05796875 55.00921875 -299.42578125 53.80859375 C-287.41411351 31.77065789 -270.01744931 11.7455377 -250.28515625 -3.66015625 C-249.75067871 -4.08167969 -249.21620117 -4.50320313 -248.66552734 -4.9375 C-226.21697175 -22.51557316 -200.02299285 -35.01333021 -172.28515625 -41.66015625 C-171.53943359 -41.85335449 -170.79371094 -42.04655273 -170.02539062 -42.24560547 C-110.98248315 -57.07898563 -45.93084411 -38.37687268 0 0 Z " fill="#FEFEFE" transform="translate(1087.28515625,808.66015625)"/>
<path d="M0 0 C21.23899864 17.46250529 34.62659426 40.59847616 38 68 C39.53985044 94.65125769 32.51126138 121.79364185 14.70043945 142.15600586 C-3.7512714 162.35850031 -27.81027788 175.66364341 -55.45703125 177.31640625 C-82.08957225 178.29693263 -107.72352922 169.43168867 -127.4375 151.4375 C-146.00383167 133.88862491 -159.00129705 110.00788925 -160 84 C-160.0515625 82.83339844 -160.103125 81.66679688 -160.15625 80.46484375 C-160.93746983 54.38114036 -151.42397934 30.34331614 -134 11 C-133.30261719 10.22011719 -132.60523438 9.44023438 -131.88671875 8.63671875 C-97.30910742 -27.96371445 -39.03598518 -30.54990144 0 0 Z " fill="#FEFEFE" transform="translate(1021,882)"/>
<path d="M0 0 C0.64018066 0.16628906 1.28036133 0.33257813 1.93994141 0.50390625 C23.34892595 6.189105 41.04169509 16.74162074 57 32 C57.67289063 32.60972656 58.34578125 33.21945312 59.0390625 33.84765625 C79.60656848 53.14505728 91.88850534 82.86787067 93.12304688 110.78222656 C93.47743767 123.53597341 93.22647562 135.61449682 90 148 C89.83371094 148.64839844 89.66742187 149.29679688 89.49609375 149.96484375 C83.8791496 171.30923153 72.55054583 190.4387885 57 206 C56.09765625 206.92554688 55.1953125 207.85109375 54.265625 208.8046875 C31.20046255 231.29640669 -0.646728 241.57104264 -32.35498047 241.35131836 C-65.31526452 240.66394723 -93.58881014 226.86599777 -117 204 C-117.8559375 203.16984375 -118.711875 202.3396875 -119.59375 201.484375 C-134.95477657 185.63723999 -143.87524369 165.17993693 -149 144 C-149.24878906 143.01902344 -149.49757813 142.03804687 -149.75390625 141.02734375 C-155.9546915 111.58445435 -148.7756504 78.10652349 -132.51171875 53.0390625 C-127.60986088 45.84998916 -122.0093745 39.28503388 -116 33 C-115.39027344 32.32710937 -114.78054688 31.65421875 -114.15234375 30.9609375 C-86.22103073 1.1912578 -38.91962 -10.34519374 0 0 Z M-96 46 C-96.77988281 46.69738281 -97.55976562 47.39476562 -98.36328125 48.11328125 C-116.06378208 64.83551606 -126.49293292 88.82539534 -128.29296875 112.921875 C-128.92484945 142.89107412 -118.39111299 168.8197684 -97.8125 190.5625 C-78.64442396 209.14179555 -52.63820593 218.60178071 -26.1652832 218.42114258 C1.64307552 217.56954873 26.05098728 204.75422822 45 185 C63.07912088 165.50120456 70.90940606 139.14621987 70.28125 112.89453125 C68.61982719 89.88844041 59.41936464 69.1178833 44 52 C42.95392578 50.83017578 42.95392578 50.83017578 41.88671875 49.63671875 C28.21762497 35.16797049 10.23169675 26.23900508 -9 22 C-9.82242188 21.77570312 -10.64484375 21.55140625 -11.4921875 21.3203125 C-41.17205124 13.8233227 -74.0331429 26.21280003 -96 46 Z " fill="#2B2B2A" transform="translate(989,841)"/>
</svg>
